<?xml version="1.0" encoding="UTF-8"?>
<svg width="34" height="37" fill="none" version="1.1" viewBox="0 0 34 37" xmlns="http://www.w3.org/2000/svg">
 <circle cx="17.11" cy="20.646" r="14.056" fill="#8aceff"/>
 <g stroke="#000" stroke-width=".38864">
  <g stroke-linecap="round">
   <g stroke-linejoin="round">
    <path d="m5.2562 31.593c3.6118 0 9.6062-2.8645 9.3172-8.3476-0.1555-2.9521-1.4095-4.4641-2.8853-5.1252"/>
    <path d="m6.1629 32.5c5.2462 0 9.716-4.7932 9.716-7.5137"/>
    <path d="m6.0982 32.488c1.2955 1.3602 4.0245 0.4678 5.3762 0 2.4912-0.8621 4.7954-2.4421 5.6353-4.4577m4.7343-3.6273c0.5771-2.9795 0.1976-4.5341 0-5.8295"/>
    <path d="m20.607 26.93c-0.9716 3.0443-5.3114 7.1898-12.113 7.1898"/>
   </g>
   <path d="m19.312 32.241c2.2023-1.0364 4.2103-4.0807 4.4694-5.8296"/>
   <g stroke-linejoin="round">
    <path d="m24.882 20.064c0.109 0.3269 0.218 1.8492-0.0605 3.8216"/>
    <path d="m19.55 22.978c0-2.5276-0.3495-4.1466-0.8211-5.2466"/>
    <path d="m15.879 21.344c-0.1345-1.6135-0.9367-3.0151-1.9432-4.0009"/>
    <path d="m17.304 20.452c0-1.2229-0.4441-2.2135-1.0364-2.9795"/>
    <path d="m7.51 33.456c11.791 7.2712 24.847-2.086 23.568-15.063-1.1595-11.765-14.111-14.944-19.611-13.151-3.1451 0.92051-9.7093 4.7382-9.7093 10.939 0 2.7816 1.9781 7.3538 7.9023 7.0558"/>
   </g>
  </g>
  <path d="m9.8551 23.108c-1.3602 0-3.8216-2.5262-1.4898-4.1455"/>
 </g>
 <g stroke="#060606" stroke-width=".38864">
  <path d="m7.329 13.975c-0.97159 0.3886-2.2698 3.24 0.54934 4.9118 1.3291 0.7882 3.078 0.5291 3.8553-1.3493m-0.9068-2.7205c-1.1012 1.6841 1.4897 4.275 3.6273 1.6841" stroke-linecap="square"/>
  <path d="m20.607 13.78c-3.2387 3.7569 2.5262 5.8944 3.0443 2.7853"/>
  <path d="m22.551 18.045c0.2375 0.7125 1.1659 2.0598 2.9796 1.7489 0.5397-0.1512 1.6452-0.7126 1.7488-1.7489"/>
  <path d="m14.764 16.743c0.0163 0.0193-0.051-0.0587 0 0zm0 0c2.6047 1.8198 4.8717 0.3947 4.8717 0.3947m-4.8717-0.3947c-3.4192-3.4807-0.634-7.4967 1.4387-7.8853" stroke-linecap="square" stroke-linejoin="bevel"/>
 </g>
 <path d="m3.4981 29.965c4.456 5.816 12.783 6.9185 18.599 2.4626 4.3258-3.3142 6.3539-8.6231 5.1171-13.594" stroke="#000" stroke-width=".38864"/>
</svg>
