<svg width="181" height="176" viewBox="0 0 181 176" fill="none" xmlns="http://www.w3.org/2000/svg">
<circle cx="103" cy="77" r="48" fill="#2F80ED"/>
<g clip-path="url(#clip0_1920_6052)">
<path d="M55.2204 47.0792L53.3572 55.6506L49.4407 56.6157L46.2966 60.0306L36.8795 61.114L36.275 63.6855L39.4294 68.9723L51.4306 72.0426L53.0627 89.0055L54.1501 95.722L62.6098 102.082L66.0194 112.628L64.6494 125.545L66.0194 131.472L70.4188 129.524L73.6623 121.069L77.2688 104.936L83.04 106.436L95.9693 104.936L109.806 101.185L114.841 107.842L119.867 114.691L120.616 127.757L122.65 131.345L127.981 129.763L128.493 113.893L125.154 103.426L127.368 91.8649L125.753 85.9712L127.466 85.8649L126.395 82.3283C126.395 82.3283 135.441 75.0923 135.494 65.4015C135.559 53.2215 123.006 42.0786 113.944 46.3643L115.851 48.4317L123.078 50.9363L128.142 57.6735L128.586 67.7586L123.705 72.8912C123.705 72.8912 117.852 75.1506 117.526 75.1815C117.201 75.2106 111.777 74.542 111.05 74.4323C110.322 74.3209 97.925 74.0483 97.4969 74.0449L73.6931 73.8649L70.674 65.2883L67.112 60.466L63.1185 57.6512L61.2142 52.6026L59.2876 48.7935L55.2204 47.0792Z" fill="#F4AA41"/>
<path d="M105.025 104.347L107.094 110.508L114.384 115.56L113.966 126.437L115.014 133.059L120.438 133.937C120.438 133.937 124.291 132.793 125.219 127.793L123.934 114.293L117.941 108.293L113.588 100.937L105.025 104.348V104.347Z" fill="#E27022"/>
<path d="M57.724 95.1649L48.2624 108.313C48.2394 108.346 48.2258 108.384 48.2231 108.423L47.6614 115.786C47.6576 115.836 47.6716 115.886 47.7007 115.927L53.1636 123.637C53.2013 123.689 53.2595 123.723 53.3229 123.727L60.0873 124.181C60.166 124.186 60.2414 124.147 60.2825 124.081L62.269 120.886C62.2793 120.871 62.2827 120.869 62.2878 120.852C62.3649 120.612 63.0567 116.249 60.3013 115.906C57.075 115.507 56.7821 113.792 57.4586 111.711C57.4506 111.671 57.454 111.63 57.4686 111.592C57.4831 111.554 57.5082 111.521 57.5408 111.497L67.0143 104.491C67.0386 104.473 67.0589 104.45 67.0737 104.423C67.0885 104.397 67.0976 104.368 67.1003 104.338C67.1031 104.308 67.0994 104.277 67.0896 104.249C67.0798 104.22 67.0641 104.194 67.0434 104.172L62.1234 98.9209C62.0923 98.8861 62.0498 98.8636 62.0035 98.8574C61.4898 98.7889 58.1847 98.2403 58.1076 95.2763C58.1025 95.0757 57.8422 95.002 57.724 95.1632V95.1649Z" fill="#E27022"/>
<path d="M125.604 89.4291C126.744 92.34 127.059 94.5086 126.487 97.1434L124.547 106.063L127.886 116.529C127.886 116.529 128.092 124.706 127.888 130.723C127.851 131.627 127.468 132.483 126.819 133.113C126.17 133.742 125.304 134.098 124.4 134.107H123.795C121.49 134.107 120.499 131.835 120.499 129.528L119.038 115.143C119.038 115.143 106.211 105.771 107.978 91.8206" stroke="black" stroke-width="2" stroke-miterlimit="10" stroke-linecap="round" stroke-linejoin="round"/>
<path d="M82.5324 107.571C89.0964 107.22 101.771 107.571 108.193 102.963" stroke="black" stroke-width="2" stroke-miterlimit="10" stroke-linecap="round" stroke-linejoin="round"/>
<path d="M113.544 50.5714C123.408 53.2217 127.373 57.9257 128.357 62.9229C130.136 71.9554 121.487 79.7194 112.561 77.4977C108.235 76.4211 104.6 76.7383 104.6 76.7383L73.0863 76.5C70.1956 62.5714 62.0458 60.1029 62.0458 60.1029C60.5627 50.5714 54.6769 50.5714 54.6769 50.5714L53.4781 58.8686L50.971 59.2971C49.6281 59.5264 48.3819 60.1451 47.3868 61.0766L45.0698 63.2451L38.0245 64.0046C37.7212 64.0375 37.4297 64.1408 37.1733 64.3063C36.9169 64.4718 36.7026 64.6949 36.5474 64.9579C36.3923 65.2209 36.3006 65.5165 36.2797 65.8213C36.2587 66.126 36.3091 66.4314 36.4268 66.7131L37.9338 70.3166C38.4304 71.5011 39.487 72.36 40.7474 72.6017L51.8221 73.8566C51.8221 73.8566 50.1096 96.4286 56.4973 99.8571C70.4199 107.331 64.0443 128.181 64.0443 128.181C62.6366 130.642 63.724 134.107 66.5582 134.107H66.5599C67.9196 134.107 69.1698 133.358 69.812 132.159L73.4082 122.786L75.7663 107.109C75.9513 105.878 75.7047 104.635 75.1413 103.526C74.1549 101.583 72.9938 97.7657 74.9066 92.34" stroke="black" stroke-width="2" stroke-miterlimit="10" stroke-linecap="round" stroke-linejoin="round"/>
<path d="M52.9387 96.9429L45.4859 108.353C44.9279 109.172 44.6187 110.136 44.5954 111.127C44.5218 114.135 44.1604 120.627 49.7329 124.31C51.1971 125.277 53.9525 125.407 55.4081 124.502C56.6377 123.737 57.6395 122.289 56.7336 119.544" stroke="black" stroke-width="2" stroke-miterlimit="10" stroke-linecap="round" stroke-linejoin="round"/>
<path d="M60.3007 105.749L52.7503 111.027" stroke="black" stroke-width="2" stroke-miterlimit="10" stroke-linecap="round" stroke-linejoin="round"/>
<path d="M104.625 111.027C105.367 113.714 109.895 116.175 111.903 117.429L110.071 129.674C110.071 130.791 110.391 131.868 111.081 132.643C112.902 134.679 115.243 133.783 115.243 133.783" stroke="black" stroke-width="2" stroke-miterlimit="10" stroke-linecap="round" stroke-linejoin="round"/>
<path d="M63.5527 162.15C62.3627 162.15 61.3627 161.93 60.5527 161.49C59.7427 161.05 59.1327 160.425 58.7227 159.615C58.3127 158.805 58.1077 157.845 58.1077 156.735C58.1077 155.615 58.3277 154.65 58.7677 153.84C59.2077 153.02 59.8377 152.39 60.6577 151.95C61.4877 151.5 62.4827 151.275 63.6427 151.275C64.4127 151.275 65.0877 151.38 65.6677 151.59C66.2477 151.79 66.7577 152.085 67.1977 152.475L66.5527 153.975C66.2327 153.725 65.9277 153.525 65.6377 153.375C65.3477 153.225 65.0477 153.12 64.7377 153.06C64.4277 152.99 64.0677 152.955 63.6577 152.955C62.4977 152.955 61.6177 153.285 61.0177 153.945C60.4277 154.595 60.1327 155.53 60.1327 156.75C60.1327 157.97 60.4127 158.9 60.9727 159.54C61.5427 160.18 62.4327 160.5 63.6427 160.5C64.0527 160.5 64.4627 160.46 64.8727 160.38C65.2927 160.3 65.7027 160.185 66.1027 160.035L65.7427 160.845V157.68H63.2677V156.27H67.3477V161.355C66.8577 161.605 66.2727 161.8 65.5927 161.94C64.9127 162.08 64.2327 162.15 63.5527 162.15ZM70.4612 156.705C70.4612 155.595 70.6612 154.635 71.0612 153.825C71.4712 153.015 72.0562 152.39 72.8162 151.95C73.5762 151.5 74.4812 151.275 75.5312 151.275C76.5712 151.275 77.4712 151.5 78.2312 151.95C78.9912 152.39 79.5762 153.015 79.9862 153.825C80.4062 154.635 80.6162 155.59 80.6162 156.69C80.6162 157.8 80.4062 158.765 79.9862 159.585C79.5762 160.395 78.9912 161.025 78.2312 161.475C77.4712 161.925 76.5712 162.15 75.5312 162.15C74.4812 162.15 73.5762 161.925 72.8162 161.475C72.0662 161.025 71.4862 160.395 71.0762 159.585C70.6662 158.765 70.4612 157.805 70.4612 156.705ZM72.4862 156.705C72.4862 157.895 72.7412 158.825 73.2512 159.495C73.7612 160.165 74.5212 160.5 75.5312 160.5C76.5112 160.5 77.2662 160.165 77.7962 159.495C78.3262 158.825 78.5912 157.895 78.5912 156.705C78.5912 155.505 78.3262 154.575 77.7962 153.915C77.2762 153.255 76.5212 152.925 75.5312 152.925C74.5212 152.925 73.7612 153.255 73.2512 153.915C72.7412 154.575 72.4862 155.505 72.4862 156.705ZM83.5179 156.705C83.5179 155.595 83.7179 154.635 84.1179 153.825C84.5279 153.015 85.1129 152.39 85.8729 151.95C86.6329 151.5 87.5379 151.275 88.5879 151.275C89.6279 151.275 90.5279 151.5 91.2879 151.95C92.0479 152.39 92.6329 153.015 93.0429 153.825C93.4629 154.635 93.6729 155.59 93.6729 156.69C93.6729 157.8 93.4629 158.765 93.0429 159.585C92.6329 160.395 92.0479 161.025 91.2879 161.475C90.5279 161.925 89.6279 162.15 88.5879 162.15C87.5379 162.15 86.6329 161.925 85.8729 161.475C85.1229 161.025 84.5429 160.395 84.1329 159.585C83.7229 158.765 83.5179 157.805 83.5179 156.705ZM85.5429 156.705C85.5429 157.895 85.7979 158.825 86.3079 159.495C86.8179 160.165 87.5779 160.5 88.5879 160.5C89.5679 160.5 90.3229 160.165 90.8529 159.495C91.3829 158.825 91.6479 157.895 91.6479 156.705C91.6479 155.505 91.3829 154.575 90.8529 153.915C90.3329 153.255 89.5779 152.925 88.5879 152.925C87.5779 152.925 86.8179 153.255 86.3079 153.915C85.7979 154.575 85.5429 155.505 85.5429 156.705ZM96.9195 162V151.425H100.76C101.97 151.425 102.99 151.635 103.82 152.055C104.66 152.465 105.295 153.065 105.725 153.855C106.155 154.635 106.37 155.585 106.37 156.705C106.37 157.815 106.155 158.765 105.725 159.555C105.295 160.345 104.66 160.95 103.82 161.37C102.99 161.79 101.97 162 100.76 162H96.9195ZM98.8545 160.395H100.64C101.92 160.395 102.87 160.09 103.49 159.48C104.11 158.87 104.42 157.945 104.42 156.705C104.42 155.455 104.11 154.53 103.49 153.93C102.87 153.32 101.92 153.015 100.64 153.015H98.8545V160.395ZM114.962 162V151.425H119.597C120.747 151.425 121.632 151.67 122.252 152.16C122.872 152.64 123.182 153.31 123.182 154.17C123.182 154.81 122.992 155.35 122.612 155.79C122.232 156.23 121.707 156.525 121.037 156.675V156.45C121.807 156.56 122.402 156.84 122.822 157.29C123.252 157.73 123.467 158.315 123.467 159.045C123.467 159.985 123.142 160.715 122.492 161.235C121.842 161.745 120.937 162 119.777 162H114.962ZM116.822 160.53H119.552C120.202 160.53 120.707 160.41 121.067 160.17C121.427 159.92 121.607 159.515 121.607 158.955C121.607 158.385 121.427 157.98 121.067 157.74C120.707 157.49 120.202 157.365 119.552 157.365H116.822V160.53ZM116.822 155.91H119.267C119.957 155.91 120.467 155.785 120.797 155.535C121.137 155.275 121.307 154.895 121.307 154.395C121.307 153.895 121.137 153.52 120.797 153.27C120.467 153.01 119.957 152.88 119.267 152.88H116.822V155.91ZM126.223 156.705C126.223 155.595 126.423 154.635 126.823 153.825C127.233 153.015 127.818 152.39 128.578 151.95C129.338 151.5 130.243 151.275 131.293 151.275C132.333 151.275 133.233 151.5 133.993 151.95C134.753 152.39 135.338 153.015 135.748 153.825C136.168 154.635 136.378 155.59 136.378 156.69C136.378 157.8 136.168 158.765 135.748 159.585C135.338 160.395 134.753 161.025 133.993 161.475C133.233 161.925 132.333 162.15 131.293 162.15C130.243 162.15 129.338 161.925 128.578 161.475C127.828 161.025 127.248 160.395 126.838 159.585C126.428 158.765 126.223 157.805 126.223 156.705ZM128.248 156.705C128.248 157.895 128.503 158.825 129.013 159.495C129.523 160.165 130.283 160.5 131.293 160.5C132.273 160.5 133.028 160.165 133.558 159.495C134.088 158.825 134.353 157.895 134.353 156.705C134.353 155.505 134.088 154.575 133.558 153.915C133.038 153.255 132.283 152.925 131.293 152.925C130.283 152.925 129.523 153.255 129.013 153.915C128.503 154.575 128.248 155.505 128.248 156.705ZM139.625 162V151.425H141.56V162H139.625Z" fill="black"/>
</g>
<defs>
<clipPath id="clip0_1920_6052">
<rect width="137" height="144" fill="white" transform="translate(26 18)"/>
</clipPath>
</defs>
</svg>
